<?xml version="1.0" encoding="UTF-8" standalone="no"?>
<svg
   xmlns:dc="http://purl.org/dc/elements/1.1/"
   xmlns:cc="http://creativecommons.org/ns#"
   xmlns:rdf="http://www.w3.org/1999/02/22-rdf-syntax-ns#"
   xmlns:svg="http://www.w3.org/2000/svg"
   xmlns="http://www.w3.org/2000/svg"
   xmlns:sodipodi="http://sodipodi.sourceforge.net/DTD/sodipodi-0.dtd"
   xmlns:inkscape="http://www.inkscape.org/namespaces/inkscape"
   viewBox="0 0 500 500"
   style="box-shadow: 3px 3px 5px #888888"
   id="svg3485"
   version="1.1"
   inkscape:version="0.91 r13725"
   sodipodi:docname="logo.svg">
  <metadata
     id="metadata3501">
    <rdf:RDF>
      <cc:Work
         rdf:about="">
        <dc:format>image/svg+xml</dc:format>
        <dc:type
           rdf:resource="http://purl.org/dc/dcmitype/StillImage" />
        <dc:title></dc:title>
      </cc:Work>
    </rdf:RDF>
  </metadata>
  <defs
     id="defs3499" />
  <sodipodi:namedview
     pagecolor="#ffffff"
     bordercolor="#666666"
     borderopacity="1"
     objecttolerance="10"
     gridtolerance="10"
     guidetolerance="10"
     inkscape:pageopacity="0"
     inkscape:pageshadow="2"
     inkscape:window-width="1432"
     inkscape:window-height="736"
     id="namedview3497"
     showgrid="false"
     inkscape:zoom="0.32"
     inkscape:cx="167.93619"
     inkscape:cy="250"
     inkscape:window-x="0"
     inkscape:window-y="0"
     inkscape:window-maximized="0"
     inkscape:current-layer="svg3485" />
  <rect
     width="500"
     height="500"
     style="fill: rgb(137,40,94)"
     id="rect3487" />
  <circle
     cx="95"
     cy="95"
     r="60"
     style="fill: white"
     id="circle3489" />
  <circle
     cx="95"
     cy="250"
     r="60"
     style="fill: black"
     id="circle3491" />
  <circle
     cx="95"
     cy="405"
     r="60"
     style="fill: white"
     id="circle3493" />
  <g
     transform="scale(0.90191927,1.1087467)"
     style="font-style:normal;font-variant:normal;font-weight:bold;font-stretch:normal;font-size:43.29173279px;line-height:125%;font-family:Nunito;-inkscape-font-specification:'Nunito, Bold';text-align:start;writing-mode:lr-tb;text-anchor:start;opacity:1;fill:#ffffff;fill-opacity:1;stroke:none;stroke-width:2;stroke-miterlimit:4;stroke-dasharray:none;stroke-opacity:1"
     id="text3495">
    <path
       d="m 206.2345,231.38813 q -0.44391,1.26831 -0.99351,2.17727 -0.5496,0.88782 -1.22603,1.45856 -0.67644,0.5496 -1.52198,0.80326 -0.84554,0.25367 -1.90247,0.25367 -1.26831,0 -2.17727,-0.40164 -0.90895,-0.40163 -1.6488,-1.22603 -0.71871,-0.8244 -1.33173,-2.07158 -0.61302,-1.26831 -1.24718,-2.98053 l -3.4033,-9.13185 q -0.23252,-0.59188 -0.50733,-1.26831 -0.2748,-0.69758 -0.2748,-1.26832 0,-0.65529 0.23253,-1.18376 0.23252,-0.5496 0.63415,-0.93009 0.42277,-0.38049 0.97238,-0.59188 0.5496,-0.21139 1.18376,-0.21139 0.73984,0 1.39514,0.46505 0.67643,0.44391 1.2049,1.14148 0.52846,0.69758 0.90895,1.52198 0.40164,0.8244 0.59188,1.54311 l 3.46672,10.75952 3.69925,-11.54164 q 0.23252,-0.80327 0.5496,-1.50084 0.33822,-0.71871 0.78213,-1.24717 0.44391,-0.52847 0.99351,-0.82441 0.57074,-0.31708 1.28945,-0.31708 0.61302,0 1.18376,0.19025 0.57074,0.19025 0.99351,0.57074 0.44391,0.35936 0.69757,0.90896 0.2748,0.52846 0.2748,1.24717 0,0.5496 -0.25366,1.24718 -0.25366,0.69757 -0.46505,1.28945 -1.01465,2.81142 -2.05044,5.58057 -1.01465,2.74801 -2.05044,5.5383 z"
       style="font-style:normal;font-variant:normal;font-weight:bold;font-stretch:normal;font-size:43.29173279px;line-height:125%;font-family:Nunito;-inkscape-font-specification:'Nunito, Bold';text-align:start;writing-mode:lr-tb;text-anchor:start;opacity:1;fill:#ffffff;fill-opacity:1;stroke:none;stroke-width:2;stroke-miterlimit:4;stroke-dasharray:none;stroke-opacity:1"
       id="path4174" />
    <path
       d="m 235.34227,224.75063 q 0,0.86668 -0.57074,1.28945 -0.57074,0.42277 -1.58539,0.42277 l -13.08476,0 q 0.1057,2.55776 1.45856,3.97405 1.37401,1.39514 4.1643,1.39514 0.90895,0 1.69108,-0.10569 0.80326,-0.12683 1.56425,-0.31708 0.76099,-0.21139 1.52198,-0.46505 0.76098,-0.25366 1.58539,-0.52846 0.2748,-0.10569 0.48618,-0.10569 0.69758,0 1.12035,0.5496 0.42277,0.52846 0.42277,1.24717 0,0.42277 -0.14797,0.80327 -0.42277,1.01465 -1.39515,1.69108 -0.97237,0.65529 -2.24068,1.05693 -1.26831,0.38049 -2.6846,0.52846 -1.41628,0.14797 -2.70573,0.14797 -2.43093,0 -4.54479,-0.69757 -2.09271,-0.69757 -3.63582,-2.07158 -1.54312,-1.374 -2.43094,-3.44558 -0.86668,-2.07158 -0.86668,-4.79845 0,-2.28296 0.84554,-4.26999 0.84555,-1.98702 2.34638,-3.44558 1.52198,-1.45856 3.59355,-2.3041 2.09272,-0.84554 4.58707,-0.84554 2.70573,0 4.67162,0.84554 1.96588,0.8244 3.25533,2.24069 1.28945,1.39514 1.92361,3.27647 0.63415,1.86019 0.65529,3.93177 z m -5.64399,-1.28945 q -0.0634,-1.12035 -0.40163,-2.07158 -0.31708,-0.95123 -0.9301,-1.64881 -0.59187,-0.69757 -1.47969,-1.07806 -0.86668,-0.40163 -2.0293,-0.40163 -1.05693,0 -1.92361,0.42277 -0.84554,0.40163 -1.4797,1.12034 -0.61302,0.69757 -0.97237,1.64881 -0.33822,0.93009 -0.40163,2.00816 l 9.61803,0 z"
       style="font-style:normal;font-variant:normal;font-weight:bold;font-stretch:normal;font-size:43.29173279px;line-height:125%;font-family:Nunito;-inkscape-font-specification:'Nunito, Bold';text-align:start;writing-mode:lr-tb;text-anchor:start;opacity:1;fill:#ffffff;fill-opacity:1;stroke:none;stroke-width:2;stroke-miterlimit:4;stroke-dasharray:none;stroke-opacity:1"
       id="path4176" />
    <path
       d="m 246.65139,207.29019 q 0,0.69758 -0.31707,1.24718 -0.31708,0.52846 -0.82441,0.88782 -0.50732,0.35935 -1.18376,0.5496 -0.65529,0.16911 -1.35286,0.16911 -0.73985,0 -1.41628,-0.19025 -0.6553,-0.19025 -1.16262,-0.5496 -0.50733,-0.3805 -0.80327,-0.90896 -0.29594,-0.52846 -0.29594,-1.2049 0,-0.61301 0.2748,-1.12034 0.29594,-0.52846 0.78213,-0.90896 0.48619,-0.38049 1.16262,-0.59188 0.67643,-0.21138 1.4797,-0.21138 0.69757,0 1.35286,0.19025 0.67644,0.19024 1.18376,0.5496 0.50733,0.35935 0.80327,0.88782 0.31707,0.52846 0.31707,1.20489 z m -0.31707,24.6264 q 0,2.00817 -0.82441,3.08623 -0.80326,1.07807 -2.68459,1.07807 -1.77564,0 -2.51549,-1.07807 -0.71871,-1.07806 -0.71871,-3.08623 l 0,-12.93678 q 0,-2.00816 0.71871,-3.08623 0.73985,-1.07807 2.51549,-1.07807 1.88133,0 2.68459,1.07807 0.82441,1.07807 0.82441,3.08623 l 0,12.93678 z"
       style="font-style:normal;font-variant:normal;font-weight:bold;font-stretch:normal;font-size:43.29173279px;line-height:125%;font-family:Nunito;-inkscape-font-specification:'Nunito, Bold';text-align:start;writing-mode:lr-tb;text-anchor:start;opacity:1;fill:#ffffff;fill-opacity:1;stroke:none;stroke-width:2;stroke-miterlimit:4;stroke-dasharray:none;stroke-opacity:1"
       id="path4178" />
    <path
       d="m 253.35231,214.73096 0.46505,-4.37568 q 0.0634,-0.63415 0.21139,-1.26831 0.1691,-0.63416 0.50732,-1.16262 0.35936,-0.52846 0.95123,-0.84554 0.59188,-0.33822 1.54312,-0.33822 1.39514,0 2.00816,0.97237 0.63416,0.97238 0.63416,2.89598 l 0,4.12202 2.36751,0 q 1.07807,0 1.7545,0.5496 0.67643,0.52847 0.67643,1.69109 0,1.07806 -0.71871,1.62766 -0.71871,0.52847 -1.94474,0.52847 l -2.13499,0 0,7.99037 q 0,1.26831 0.0423,2.15613 0.0423,0.88782 0.2748,1.45856 0.23253,0.5496 0.69758,0.80326 0.46504,0.23252 1.33172,0.23252 0.61302,0 1.18376,0.0634 0.59188,0.0423 1.03579,0.25366 0.44391,0.21139 0.69757,0.63416 0.2748,0.40163 0.2748,1.12034 0,0.80327 -0.40163,1.28945 -0.40163,0.48619 -1.16262,0.76099 -0.73985,0.25366 -1.79677,0.33822 -1.03579,0.10569 -2.32524,0.10569 -1.4797,-0.0211 -2.70574,-0.44391 -1.20489,-0.42277 -2.09271,-1.33173 -0.86668,-0.93009 -1.35287,-2.38865 -0.46505,-1.4797 -0.46505,-3.61469 l 0,-9.42779 -0.97237,0 q -1.14148,0 -1.90247,-0.52847 -0.76099,-0.5496 -0.76099,-1.7545 0,-0.95123 0.59188,-1.52197 0.61302,-0.59188 1.83906,-0.59188 l 1.6488,0 z"
       style="font-style:normal;font-variant:normal;font-weight:bold;font-stretch:normal;font-size:43.29173279px;line-height:125%;font-family:Nunito;-inkscape-font-specification:'Nunito, Bold';text-align:start;writing-mode:lr-tb;text-anchor:start;opacity:1;fill:#ffffff;fill-opacity:1;stroke:none;stroke-width:2;stroke-miterlimit:4;stroke-dasharray:none;stroke-opacity:1"
       id="path4180" />
    <path
       d="m 274.72338,219.0855 q 0.38049,-1.01465 1.07807,-1.86019 0.71871,-0.86668 1.66994,-1.4797 0.97237,-0.61302 2.15613,-0.95123 1.18376,-0.33822 2.51549,-0.33822 1.374,0 2.64232,0.50732 1.28945,0.48619 2.28296,1.4797 0.99351,0.97237 1.58539,2.45207 0.59188,1.4797 0.59188,3.46672 l -0.0211,9.55462 q 0,2.00817 -0.8244,3.08623 -0.80327,1.07807 -2.6846,1.07807 -1.77564,0 -2.51549,-1.07807 -0.71871,-1.07806 -0.71871,-3.08623 l 0,-9.25868 q 0,-0.99351 -0.2748,-1.73336 -0.25366,-0.76098 -0.71871,-1.26831 -0.44391,-0.50732 -1.07806,-0.76099 -0.63416,-0.25366 -1.35287,-0.25366 -0.86668,0 -1.64881,0.29594 -0.78212,0.2748 -1.374,0.84554 -0.59188,0.57074 -0.95123,1.43742 -0.33822,0.84554 -0.33822,2.00816 l 0,8.68794 q 0,2.00817 -0.8244,3.08623 -0.80327,1.07807 -2.6846,1.07807 -1.77564,0 -2.51549,-1.07807 -0.71871,-1.07806 -0.71871,-3.08623 l -0.0211,-22.36457 q 0,-2.00816 0.71871,-3.08623 0.73984,-1.07807 2.51548,-1.07807 1.88133,0 2.6846,1.07807 0.8244,1.07807 0.8244,3.08623 l 0,9.53348 z"
       style="font-style:normal;font-variant:normal;font-weight:bold;font-stretch:normal;font-size:43.29173279px;line-height:125%;font-family:Nunito;-inkscape-font-specification:'Nunito, Bold';text-align:start;writing-mode:lr-tb;text-anchor:start;opacity:1;fill:#ffffff;fill-opacity:1;stroke:none;stroke-width:2;stroke-miterlimit:4;stroke-dasharray:none;stroke-opacity:1"
       id="path4182" />
    <path
       d="m 315.11913,224.75063 q 0,0.86668 -0.57074,1.28945 -0.57074,0.42277 -1.58539,0.42277 l -13.08476,0 q 0.1057,2.55776 1.45856,3.97405 1.37401,1.39514 4.16429,1.39514 0.90896,0 1.69109,-0.10569 0.80326,-0.12683 1.56425,-0.31708 0.76099,-0.21139 1.52197,-0.46505 0.76099,-0.25366 1.5854,-0.52846 0.2748,-0.10569 0.48618,-0.10569 0.69757,0 1.12034,0.5496 0.42278,0.52846 0.42278,1.24717 0,0.42277 -0.14797,0.80327 -0.42278,1.01465 -1.39515,1.69108 -0.97237,0.65529 -2.24068,1.05693 -1.26832,0.38049 -2.6846,0.52846 -1.41628,0.14797 -2.70573,0.14797 -2.43093,0 -4.54479,-0.69757 -2.09271,-0.69757 -3.63583,-2.07158 -1.54311,-1.374 -2.43093,-3.44558 -0.86668,-2.07158 -0.86668,-4.79845 0,-2.28296 0.84554,-4.26999 0.84554,-1.98702 2.34638,-3.44558 1.52198,-1.45856 3.59355,-2.3041 2.09272,-0.84554 4.58707,-0.84554 2.70573,0 4.67161,0.84554 1.96589,0.8244 3.25534,2.24069 1.28945,1.39514 1.92361,3.27647 0.63415,1.86019 0.65529,3.93177 z m -5.64399,-1.28945 q -0.0634,-1.12035 -0.40163,-2.07158 -0.31708,-0.95123 -0.9301,-1.64881 -0.59188,-0.69757 -1.4797,-1.07806 -0.86668,-0.40163 -2.0293,-0.40163 -1.05692,0 -1.9236,0.42277 -0.84554,0.40163 -1.4797,1.12034 -0.61302,0.69757 -0.97237,1.64881 -0.33822,0.93009 -0.40164,2.00816 l 9.61804,0 z"
       style="font-style:normal;font-variant:normal;font-weight:bold;font-stretch:normal;font-size:43.29173279px;line-height:125%;font-family:Nunito;-inkscape-font-specification:'Nunito, Bold';text-align:start;writing-mode:lr-tb;text-anchor:start;opacity:1;fill:#ffffff;fill-opacity:1;stroke:none;stroke-width:2;stroke-miterlimit:4;stroke-dasharray:none;stroke-opacity:1"
       id="path4184" />
    <path
       d="m 319.30456,218.97981 q 0,-2.00816 0.71871,-3.08623 0.73985,-1.07807 2.51549,-1.07807 1.88133,0 2.6846,1.07807 0.8244,1.07807 0.8244,3.08623 0.38049,-1.01465 1.0992,-1.83906 0.71871,-0.84554 1.69109,-1.43742 0.99351,-0.59188 2.17727,-0.90895 1.18375,-0.33822 2.49434,-0.33822 1.35287,0 2.62118,0.48619 1.28945,0.48618 2.26183,1.47969 0.97237,0.97238 1.56425,2.47321 0.59188,1.4797 0.59188,3.46672 l 0,9.55462 q 0,2.00817 -0.8244,3.08623 -0.80327,1.07807 -2.6846,1.07807 -1.77564,0 -2.51549,-1.07807 -0.71871,-1.07806 -0.71871,-3.08623 l 0,-9.25868 q 0,-1.01465 -0.2748,-1.7545 -0.25366,-0.76098 -0.71871,-1.24717 -0.46505,-0.50732 -1.0992,-0.76099 -0.61302,-0.25366 -1.33173,-0.25366 -0.88782,0 -1.69108,0.29594 -0.78213,0.2748 -1.37401,0.84554 -0.57074,0.57074 -0.90896,1.41628 -0.33821,0.84555 -0.33821,1.96589 l 0,8.75135 q 0,2.00817 -0.82441,3.08623 -0.80326,1.07807 -2.68459,1.07807 -1.77564,0 -2.51549,-1.07807 -0.71871,-1.07806 -0.71871,-3.08623 l -0.0211,-12.93678 z"
       style="font-style:normal;font-variant:normal;font-weight:bold;font-stretch:normal;font-size:43.29173279px;line-height:125%;font-family:Nunito;-inkscape-font-specification:'Nunito, Bold';text-align:start;writing-mode:lr-tb;text-anchor:start;opacity:1;fill:#ffffff;fill-opacity:1;stroke:none;stroke-width:2;stroke-miterlimit:4;stroke-dasharray:none;stroke-opacity:1"
       id="path4186" />
    <path
       d="m 346.25621,232.741 q 0,-0.69757 0.25366,-1.31059 0.2748,-0.63416 0.73985,-1.09921 0.48619,-0.48618 1.14148,-0.76098 0.6553,-0.29594 1.43742,-0.29594 0.69758,0 1.33173,0.25366 0.6553,0.25366 1.14148,0.71871 0.50733,0.44391 0.80327,1.07807 0.29594,0.63415 0.29594,1.41628 0,0.69757 -0.2748,1.33173 -0.2748,0.63415 -0.76099,1.12034 -0.46505,0.46505 -1.12034,0.73985 -0.6553,0.2748 -1.41629,0.2748 -0.73985,0 -1.39514,-0.25366 -0.63416,-0.27481 -1.12034,-0.73985 -0.48619,-0.46505 -0.78213,-1.09921 -0.2748,-0.63415 -0.2748,-1.374 z"
       style="font-style:normal;font-variant:normal;font-weight:bold;font-stretch:normal;font-size:43.29173279px;line-height:125%;font-family:Nunito;-inkscape-font-specification:'Nunito, Bold';text-align:start;writing-mode:lr-tb;text-anchor:start;opacity:1;fill:#ffffff;fill-opacity:1;stroke:none;stroke-width:2;stroke-miterlimit:4;stroke-dasharray:none;stroke-opacity:1"
       id="path4188" />
    <path
       d="m 374.58184,232.00115 q -0.57074,1.05693 -1.39514,1.79677 -0.80326,0.73985 -1.79677,1.22604 -0.97238,0.46505 -2.09272,0.69757 -1.0992,0.21139 -2.26182,0.21139 -1.94475,0 -3.55128,-0.69757 -1.60653,-0.69758 -2.76915,-2.00817 -1.14148,-1.33172 -1.77564,-3.25533 -0.63415,-1.92361 -0.63415,-4.39682 0,-2.32524 0.59188,-4.35454 0.59188,-2.0293 1.71222,-3.53013 1.14148,-1.50084 2.79029,-2.36752 1.6488,-0.86668 3.76266,-0.86668 2.40979,0 4.26998,0.93009 1.88133,0.9301 3.2342,3.04395 l 0,-0.5496 q 0,-1.52197 0.8244,-2.28296 0.84554,-0.78213 2.32524,-0.78213 0.88782,0 1.50084,0.29594 0.61302,0.2748 0.97237,0.84555 0.35936,0.5496 0.50733,1.374 0.1691,0.80327 0.1691,1.83905 l 0,14.16283 q 0,2.5789 -0.65529,4.6082 -0.63416,2.0293 -1.98702,3.42444 -1.35287,1.39515 -3.46672,2.11386 -2.11386,0.73985 -5.03098,0.73985 -2.05044,0 -3.63583,-0.19025 -1.56425,-0.16911 -2.70573,-0.52847 -1.14148,-0.40163 -1.73336,-0.88781 -0.57074,-0.48619 -0.57074,-1.26832 0,-0.44391 0.12683,-0.84554 0.12683,-0.40163 0.38049,-0.71871 0.27481,-0.29594 0.69758,-0.48618 0.44391,-0.16911 1.07806,-0.16911 0.67644,0 1.35287,0.0846 0.69757,0.0846 1.43742,0.16911 0.76099,0.10569 1.58539,0.19025 0.84554,0.0846 1.81791,0.0846 1.16262,0 2.07158,-0.23252 0.90896,-0.23253 1.54312,-0.82441 0.63415,-0.59188 0.97237,-1.58539 0.33821,-0.97237 0.33821,-2.49435 l 0,-2.51548 z m 0,-6.57409 q 0,-1.54311 -0.23252,-2.81142 -0.21138,-1.26832 -0.73985,-2.15614 -0.52846,-0.90895 -1.41628,-1.39514 -0.88782,-0.50732 -2.21955,-0.50732 -1.31059,0 -2.17727,0.52846 -0.84554,0.52846 -1.35286,1.45856 -0.50733,0.93009 -0.71871,2.17727 -0.19025,1.24717 -0.19025,2.66345 0,3.2342 1.14148,4.86187 1.14148,1.62767 3.31875,1.62767 1.01465,-0.0211 1.83905,-0.3805 0.84555,-0.38049 1.45856,-1.16262 0.61302,-0.78212 0.95124,-1.98702 0.33821,-1.2049 0.33821,-2.91712 z"
       style="font-style:normal;font-variant:normal;font-weight:bold;font-stretch:normal;font-size:43.29173279px;line-height:125%;font-family:Nunito;-inkscape-font-specification:'Nunito, Bold';text-align:start;writing-mode:lr-tb;text-anchor:start;opacity:1;fill:#ffffff;fill-opacity:1;stroke:none;stroke-width:2;stroke-miterlimit:4;stroke-dasharray:none;stroke-opacity:1"
       id="path4190" />
    <path
       d="m 392.84555,207.29019 q 0,0.69758 -0.31707,1.24718 -0.31708,0.52846 -0.82441,0.88782 -0.50732,0.35935 -1.18375,0.5496 -0.6553,0.16911 -1.35287,0.16911 -0.73985,0 -1.41628,-0.19025 -0.6553,-0.19025 -1.16262,-0.5496 -0.50733,-0.3805 -0.80327,-0.90896 -0.29594,-0.52846 -0.29594,-1.2049 0,-0.61301 0.2748,-1.12034 0.29594,-0.52846 0.78213,-0.90896 0.48619,-0.38049 1.16262,-0.59188 0.67643,-0.21138 1.4797,-0.21138 0.69757,0 1.35286,0.19025 0.67644,0.19024 1.18376,0.5496 0.50733,0.35935 0.80327,0.88782 0.31707,0.52846 0.31707,1.20489 z m -0.31707,24.6264 q 0,2.00817 -0.82441,3.08623 -0.80326,1.07807 -2.68459,1.07807 -1.77564,0 -2.51549,-1.07807 -0.71871,-1.07806 -0.71871,-3.08623 l 0,-12.93678 q 0,-2.00816 0.71871,-3.08623 0.73985,-1.07807 2.51549,-1.07807 1.88133,0 2.68459,1.07807 0.82441,1.07807 0.82441,3.08623 l 0,12.93678 z"
       style="font-style:normal;font-variant:normal;font-weight:bold;font-stretch:normal;font-size:43.29173279px;line-height:125%;font-family:Nunito;-inkscape-font-specification:'Nunito, Bold';text-align:start;writing-mode:lr-tb;text-anchor:start;opacity:1;fill:#ffffff;fill-opacity:1;stroke:none;stroke-width:2;stroke-miterlimit:4;stroke-dasharray:none;stroke-opacity:1"
       id="path4192" />
    <path
       d="m 399.54646,214.73096 0.46505,-4.37568 q 0.0634,-0.63415 0.21139,-1.26831 0.16911,-0.63416 0.50732,-1.16262 0.35936,-0.52846 0.95124,-0.84554 0.59188,-0.33822 1.54311,-0.33822 1.39514,0 2.00816,0.97237 0.63416,0.97238 0.63416,2.89598 l 0,4.12202 2.36752,0 q 1.07806,0 1.75449,0.5496 0.67644,0.52847 0.67644,1.69109 0,1.07806 -0.71871,1.62766 -0.71871,0.52847 -1.94475,0.52847 l -2.13499,0 0,7.99037 q 0,1.26831 0.0423,2.15613 0.0423,0.88782 0.2748,1.45856 0.23252,0.5496 0.69757,0.80326 0.46505,0.23252 1.33173,0.23252 0.61301,0 1.18376,0.0634 0.59187,0.0423 1.03578,0.25366 0.44391,0.21139 0.69758,0.63416 0.2748,0.40163 0.2748,1.12034 0,0.80327 -0.40164,1.28945 -0.40163,0.48619 -1.16262,0.76099 -0.73984,0.25366 -1.79677,0.33822 -1.03579,0.10569 -2.32524,0.10569 -1.4797,-0.0211 -2.70573,-0.44391 -1.2049,-0.42277 -2.09272,-1.33173 -0.86668,-0.93009 -1.35287,-2.38865 -0.46504,-1.4797 -0.46504,-3.61469 l 0,-9.42779 -0.97238,0 q -1.14148,0 -1.90247,-0.52847 -0.76098,-0.5496 -0.76098,-1.7545 0,-0.95123 0.59188,-1.52197 0.61301,-0.59188 1.83905,-0.59188 l 1.6488,0 z"
       style="font-style:normal;font-variant:normal;font-weight:bold;font-stretch:normal;font-size:43.29173279px;line-height:125%;font-family:Nunito;-inkscape-font-specification:'Nunito, Bold';text-align:start;writing-mode:lr-tb;text-anchor:start;opacity:1;fill:#ffffff;fill-opacity:1;stroke:none;stroke-width:2;stroke-miterlimit:4;stroke-dasharray:none;stroke-opacity:1"
       id="path4194" />
    <path
       d="m 420.91753,219.0855 q 0.38049,-1.01465 1.07806,-1.86019 0.71871,-0.86668 1.66995,-1.4797 0.97237,-0.61302 2.15613,-0.95123 1.18375,-0.33822 2.51548,-0.33822 1.37401,0 2.64232,0.50732 1.28945,0.48619 2.28296,1.4797 0.99351,0.97237 1.58539,2.45207 0.59188,1.4797 0.59188,3.46672 l -0.0211,9.55462 q 0,2.00817 -0.8244,3.08623 -0.80326,1.07807 -2.68459,1.07807 -1.77564,0 -2.51549,-1.07807 -0.71871,-1.07806 -0.71871,-3.08623 l 0,-9.25868 q 0,-0.99351 -0.2748,-1.73336 -0.25366,-0.76098 -0.71871,-1.26831 -0.44391,-0.50732 -1.07807,-0.76099 -0.63415,-0.25366 -1.35286,-0.25366 -0.86668,0 -1.64881,0.29594 -0.78213,0.2748 -1.37401,0.84554 -0.59187,0.57074 -0.95123,1.43742 -0.33822,0.84554 -0.33822,2.00816 l 0,8.68794 q 0,2.00817 -0.8244,3.08623 -0.80326,1.07807 -2.68459,1.07807 -1.77564,0 -2.51549,-1.07807 -0.71871,-1.07806 -0.71871,-3.08623 l -0.0211,-22.36457 q 0,-2.00816 0.71871,-3.08623 0.73985,-1.07807 2.51549,-1.07807 1.88133,0 2.68459,1.07807 0.82441,1.07807 0.82441,3.08623 l 0,9.53348 z"
       style="font-style:normal;font-variant:normal;font-weight:bold;font-stretch:normal;font-size:43.29173279px;line-height:125%;font-family:Nunito;-inkscape-font-specification:'Nunito, Bold';text-align:start;writing-mode:lr-tb;text-anchor:start;opacity:1;fill:#ffffff;fill-opacity:1;stroke:none;stroke-width:2;stroke-miterlimit:4;stroke-dasharray:none;stroke-opacity:1"
       id="path4196" />
    <path
       d="m 447.06591,228.23849 q 0,0.99351 0.25366,1.73336 0.2748,0.73985 0.73985,1.24717 0.46505,0.48619 1.07806,0.73985 0.63416,0.23253 1.35287,0.23253 0.84554,0 1.62767,-0.25367 0.78212,-0.25366 1.374,-0.78212 0.61302,-0.52847 0.97238,-1.33173 0.35935,-0.80327 0.35935,-1.88133 l 0,-8.96274 q 0,-2.00816 0.71871,-3.08623 0.73985,-1.07807 2.51549,-1.07807 1.88133,0 2.68459,1.07807 0.82441,1.07807 0.82441,3.08623 l 0,12.93678 q 0,2.00817 -0.82441,3.08623 -0.80326,1.07807 -2.68459,1.07807 -1.77564,0 -2.51549,-1.07807 -0.71871,-1.07806 -0.71871,-3.08623 -0.44391,0.97238 -1.16262,1.77564 -0.69757,0.80327 -1.6488,1.39515 -0.9301,0.57074 -2.07158,0.88781 -1.12034,0.31708 -2.43093,0.31708 -1.41629,0 -2.72688,-0.48618 -1.28945,-0.50733 -2.28296,-1.4797 -0.99351,-0.99351 -1.58539,-2.45207 -0.59188,-1.45856 -0.59188,-3.40331 l 0,-9.4912 q 0,-2.00816 0.71871,-3.08623 0.73985,-1.07807 2.51549,-1.07807 1.88133,0 2.68459,1.07807 0.82441,1.07807 0.82441,3.08623 l 0,9.25868 z"
       style="font-style:normal;font-variant:normal;font-weight:bold;font-stretch:normal;font-size:43.29173279px;line-height:125%;font-family:Nunito;-inkscape-font-specification:'Nunito, Bold';text-align:start;writing-mode:lr-tb;text-anchor:start;opacity:1;fill:#ffffff;fill-opacity:1;stroke:none;stroke-width:2;stroke-miterlimit:4;stroke-dasharray:none;stroke-opacity:1"
       id="path4198" />
    <path
       d="m 473.15087,225.21568 q 0,1.71222 0.21139,3.04395 0.23252,1.31059 0.76099,2.1984 0.5496,0.88782 1.45855,1.35287 0.90896,0.46505 2.30411,0.46505 1.26831,0 2.09271,-0.59188 0.84554,-0.59188 1.31059,-1.56425 0.48619,-0.99351 0.67643,-2.24069 0.19025,-1.26831 0.19025,-2.60004 0,-1.26831 -0.21138,-2.47321 -0.19025,-1.20489 -0.69758,-2.15613 -0.48618,-0.95123 -1.35286,-1.52197 -0.84554,-0.57074 -2.15613,-0.57074 -1.33173,0 -2.21955,0.50732 -0.86668,0.48619 -1.41628,1.37401 -0.52847,0.86668 -0.73985,2.09271 -0.21139,1.22604 -0.21139,2.6846 z m -0.0211,-6.67978 q 1.14149,-1.90247 3.04395,-2.98054 1.90247,-1.0992 4.37568,-1.0992 1.79678,0 3.33989,0.76099 1.56425,0.76098 2.70573,2.17727 1.14149,1.39514 1.77564,3.4033 0.6553,1.98702 0.6553,4.46023 0,2.17727 -0.59188,4.18543 -0.57074,1.98703 -1.64881,3.53014 -1.07806,1.52198 -2.64232,2.45207 -1.54311,0.90896 -3.48786,0.90896 -2.32523,0 -4.29112,-1.07807 -1.94474,-1.0992 -3.2342,-3.33989 0,2.00817 -0.8244,3.08623 -0.80326,1.07807 -2.68459,1.07807 -1.77564,0 -2.51549,-1.07807 -0.71871,-1.07806 -0.71871,-3.08623 l 0,-22.34343 q 0,-2.00817 0.71871,-3.08623 0.73985,-1.07807 2.51549,-1.07807 1.88133,0 2.68459,1.07807 0.8244,1.07806 0.8244,3.08623 l 0,8.96274 z"
       style="font-style:normal;font-variant:normal;font-weight:bold;font-stretch:normal;font-size:43.29173279px;line-height:125%;font-family:Nunito;-inkscape-font-specification:'Nunito, Bold';text-align:start;writing-mode:lr-tb;text-anchor:start;opacity:1;fill:#ffffff;fill-opacity:1;stroke:none;stroke-width:2;stroke-miterlimit:4;stroke-dasharray:none;stroke-opacity:1"
       id="path4200" />
    <path
       d="m 493.12679,232.741 q 0,-0.69757 0.25366,-1.31059 0.2748,-0.63416 0.73985,-1.09921 0.48618,-0.48618 1.14148,-0.76098 0.65529,-0.29594 1.43742,-0.29594 0.69757,0 1.33173,0.25366 0.65529,0.25366 1.14148,0.71871 0.50732,0.44391 0.80326,1.07807 0.29594,0.63415 0.29594,1.41628 0,0.69757 -0.2748,1.33173 -0.2748,0.63415 -0.76099,1.12034 -0.46504,0.46505 -1.12034,0.73985 -0.65529,0.2748 -1.41628,0.2748 -0.73985,0 -1.39515,-0.25366 -0.63415,-0.27481 -1.12034,-0.73985 -0.48618,-0.46505 -0.78212,-1.09921 -0.2748,-0.63415 -0.2748,-1.374 z"
       style="font-style:normal;font-variant:normal;font-weight:bold;font-stretch:normal;font-size:43.29173279px;line-height:125%;font-family:Nunito;-inkscape-font-specification:'Nunito, Bold';text-align:start;writing-mode:lr-tb;text-anchor:start;opacity:1;fill:#ffffff;fill-opacity:1;stroke:none;stroke-width:2;stroke-miterlimit:4;stroke-dasharray:none;stroke-opacity:1"
       id="path4202" />
    <path
       d="m 513.16614,207.29019 q 0,0.69758 -0.31708,1.24718 -0.31707,0.52846 -0.8244,0.88782 -0.50732,0.35935 -1.18376,0.5496 -0.65529,0.16911 -1.35286,0.16911 -0.73985,0 -1.41629,-0.19025 -0.65529,-0.19025 -1.16262,-0.5496 -0.50732,-0.3805 -0.80326,-0.90896 -0.29594,-0.52846 -0.29594,-1.2049 0,-0.61301 0.2748,-1.12034 0.29594,-0.52846 0.78213,-0.90896 0.48618,-0.38049 1.16262,-0.59188 0.67643,-0.21138 1.47969,-0.21138 0.69758,0 1.35287,0.19025 0.67643,0.19024 1.18376,0.5496 0.50732,0.35935 0.80326,0.88782 0.31708,0.52846 0.31708,1.20489 z m -0.31708,24.6264 q 0,2.00817 -0.8244,3.08623 -0.80326,1.07807 -2.68459,1.07807 -1.77564,0 -2.51549,-1.07807 -0.71871,-1.07806 -0.71871,-3.08623 l 0,-12.93678 q 0,-2.00816 0.71871,-3.08623 0.73985,-1.07807 2.51549,-1.07807 1.88133,0 2.68459,1.07807 0.8244,1.07807 0.8244,3.08623 l 0,12.93678 z"
       style="font-style:normal;font-variant:normal;font-weight:bold;font-stretch:normal;font-size:43.29173279px;line-height:125%;font-family:Nunito;-inkscape-font-specification:'Nunito, Bold';text-align:start;writing-mode:lr-tb;text-anchor:start;opacity:1;fill:#ffffff;fill-opacity:1;stroke:none;stroke-width:2;stroke-miterlimit:4;stroke-dasharray:none;stroke-opacity:1"
       id="path4204" />
    <path
       d="m 516.88652,225.42706 q 0,-2.24068 0.71871,-4.22771 0.73985,-2.00816 2.19841,-3.50899 1.47969,-1.50084 3.6781,-2.38866 2.21955,-0.88782 5.20008,-0.88782 2.85371,0 5.05212,0.82441 2.1984,0.8244 3.69924,2.3041 1.50084,1.45856 2.28296,3.48786 0.78213,2.00816 0.78213,4.39681 0,2.21955 -0.73985,4.20657 -0.73985,1.96589 -2.21955,3.46672 -1.4797,1.4797 -3.69924,2.36752 -2.21955,0.86668 -5.15781,0.86668 -2.89598,0 -5.11552,-0.8244 -2.19841,-0.84555 -3.69925,-2.3041 -1.4797,-1.4797 -2.24068,-3.46673 -0.73985,-2.00816 -0.73985,-4.31226 z m 7.03913,0 q 0,1.39515 0.25366,2.66346 0.25367,1.24717 0.80327,2.19841 0.57074,0.95123 1.4797,1.52197 0.90895,0.5496 2.21954,0.5496 1.2049,0 2.09272,-0.50732 0.90896,-0.50733 1.4797,-1.41628 0.59188,-0.90896 0.88782,-2.17727 0.29594,-1.28945 0.29594,-2.83257 0,-1.39514 -0.27481,-2.64232 -0.25366,-1.26831 -0.8244,-2.21954 -0.57074,-0.97238 -1.4797,-1.52198 -0.88782,-0.57074 -2.17727,-0.57074 -1.28945,0 -2.1984,0.5496 -0.90896,0.54961 -1.4797,1.50084 -0.57074,0.95123 -0.82441,2.21955 -0.25366,1.26831 -0.25366,2.68459 z"
       style="font-style:normal;font-variant:normal;font-weight:bold;font-stretch:normal;font-size:43.29173279px;line-height:125%;font-family:Nunito;-inkscape-font-specification:'Nunito, Bold';text-align:start;writing-mode:lr-tb;text-anchor:start;opacity:1;fill:#ffffff;fill-opacity:1;stroke:none;stroke-width:2;stroke-miterlimit:4;stroke-dasharray:none;stroke-opacity:1"
       id="path4206" />
  </g>
</svg>
